<?xml version="1.0" encoding="UTF-8"?>
<svg width="37px" height="35px" viewBox="0 0 37 35" version="1.1" xmlns="http://www.w3.org/2000/svg" xmlns:xlink="http://www.w3.org/1999/xlink">
    <title>Group 20</title>
    <g id="Page-1" stroke="none" stroke-width="1" fill="none" fill-rule="evenodd">
        <g id="shutterstock_1228574389" transform="translate(-110.000000, -139.000000)" stroke="#303030">
            <g id="Group-20" transform="translate(111.000000, 140.000000)">
                <path d="M30.0685938,30.2620312 L30.0685938,31.1539063 C30.0685938,31.281875 30.0252344,31.4076563 29.9464063,31.508125 L29.1896875,32.4744531 C29.1853125,32.4810156 29.1810156,32.4867969 29.1774219,32.4932813 L29.0089844,32.8019531 C28.9085156,32.9869531 28.7147656,33.101875 28.5044531,33.101875 L28.3577344,33.101875 C28.1488281,33.101875 27.9558594,32.9883594 27.8546875,32.8055469 L27.7484375,32.6139844 C27.7411719,32.6010156 27.7325,32.5894531 27.7216406,32.58 L27.3125781,32.2049219 C27.1940625,32.0964844 27.1260938,31.9417969 27.1260938,31.7813281 L27.1260938,31.1625781 C27.1260938,31.1438281 27.1225,31.1257813 27.1145313,31.1084375 L26.7979688,30.3964844 C26.7653906,30.3220313 26.74875,30.2439063 26.74875,30.1629688 L26.74875,30.0264063 C26.74875,29.7090625 27.0060938,29.4510156 27.3234375,29.4510156 C27.4470313,29.4510156 27.5619531,29.4878906 27.6595313,29.5565625 L28.2261719,29.95625 C28.2601563,29.9808594 28.305,29.9873438 28.3446875,29.9750781 L29.1621875,29.7141406 C29.2185938,29.6967969 29.2778125,29.6874219 29.3364063,29.6874219 L29.4932813,29.6874219 C29.8105469,29.6874219 30.0685938,29.9453906 30.0685938,30.2620312 Z M34.9285156,16.3507031 L34.6032031,17.24625 C34.6010156,17.2520312 34.5989062,17.2578125 34.5974219,17.264375 L34.1428125,19.2664844 C34.1305469,19.3214062 34.1095312,19.3742188 34.0821094,19.4233594 L32.9885156,21.3835937 C32.9848437,21.389375 32.9819531,21.3958594 32.9798438,21.4030469 L31.7221875,24.7098437 C31.72,24.7149219 31.7185156,24.72 31.7171094,24.7250781 L31.4063281,25.9278125 C31.3463281,26.1619531 31.1525781,26.3332812 30.9133594,26.3657812 L29.8682031,26.5046094 C29.835625,26.5089063 29.8053125,26.5240625 29.7821875,26.5471875 L28.8504688,27.4789063 C28.8317188,27.4977344 28.81,27.5164844 28.7875781,27.533125 L28.6372656,27.6465625 C28.5339062,27.7232031 28.4117188,27.764375 28.283125,27.764375 C28.1689063,27.764375 28.0582813,27.731875 27.9628906,27.6704687 L26.9017969,26.9852344 C26.85625,26.9563281 26.7955469,26.9534375 26.7485938,26.9801563 L26.1674219,27.2996875 C26.0004687,27.3914844 25.7894531,27.3950781 25.6196094,27.3097656 L24.9726563,26.9867188 C24.9646875,26.9823437 24.9560156,26.9794531 24.948125,26.9772656 L23.7945312,26.6353906 C23.70125,26.6071875 23.6145313,26.5558594 23.5451563,26.4864844 L22.8867188,25.82875 C22.8057031,25.7478125 22.7507812,25.6451562 22.7269531,25.533125 L22.57875,24.8313281 C22.5744531,24.8082031 22.5635938,24.7857812 22.5484375,24.7677344 L22.0345313,24.1345312 C22.0229688,24.1207812 22.0092187,24.1085156 21.9932812,24.0998437 L20.9105469,23.4753125 C20.888125,23.4616406 20.8621094,23.4550781 20.8360938,23.4550781 L20.2267969,23.4550781 C20.1285156,23.4550781 20.0309375,23.4297656 19.9441406,23.3828125 L19.1520313,22.9505469 C18.9886719,22.8617187 18.8758594,22.6990625 18.8498437,22.5161719 L18.795625,22.1352344 C18.7920313,22.11 18.7819531,22.0853906 18.7660156,22.0651562 L17.4592188,20.3789062 C17.4339062,20.3463281 17.3970313,20.3260937 17.3565625,20.3217969 L16.2542969,20.2032031 C16.1878125,20.1960156 16.1234375,20.1779687 16.0635156,20.1497656 L15.2242969,19.75 C15.1989844,19.7377344 15.1708594,19.7334375 15.1433594,19.7363281 L13.801875,19.8852344 C13.6551562,19.9017969 13.5120312,19.9394531 13.376875,19.9972656 L12.5528906,20.3507031 C12.3577344,20.4338281 12.1524219,20.4880469 11.9414062,20.511875 L11.0147656,20.6145312 C10.998125,20.6166406 10.9814844,20.6210156 10.9663281,20.6282031 L9.99484375,21.0929687 C9.97898437,21.1002344 9.96523437,21.1103125 9.95367187,21.121875 L9.11523437,21.9603906 C9.00390625,22.0716406 8.85578125,22.133125 8.69820312,22.133125 L7.48601562,22.133125 L6.21101562,22.1757812 C6.17492187,22.1771875 6.1409375,22.1909375 6.11414062,22.2154687 L5.62992187,22.6628906 C5.6003125,22.6903906 5.56773437,22.7142188 5.53304687,22.7351562 L4.4734375,23.3705469 C4.38164063,23.4261719 4.27679687,23.4550781 4.16984375,23.4550781 L3.06539062,23.4550781 C2.94546875,23.4550781 2.83054687,23.4196875 2.7321875,23.3517187 L1.97765625,22.8364062 C1.92632813,22.8009375 1.88148437,22.7583594 1.84320313,22.7091406 L1.57648437,22.3622656 C1.41742187,22.1555469 1.41382813,21.8635156 1.56851562,21.653125 L1.87132813,21.2404687 C1.88507812,21.2216406 1.89445312,21.1992187 1.898125,21.1760937 L2.03257813,20.373125 C2.050625,20.2603125 2.03398438,20.146875 1.98265625,20.0457031 L1.37695312,18.8328125 C1.33578125,18.7511719 1.3140625,18.6600781 1.3140625,18.5689844 L1.3140625,17.7840625 C1.3140625,17.5925 1.260625,17.4060156 1.159375,17.2441406 L0.911484375,16.8472656 C0.87390625,16.7865625 0.8471875,16.7207813 0.8334375,16.6507031 L0.67078125,15.8367969 C0.6671875,15.8194531 0.660703125,15.8028125 0.65203125,15.7883594 L0.12,14.9145312 C0.024609375,14.7584375 0.00796875,14.5639844 0.07375,14.3933594 L0.295625,13.8238281 C0.306484375,13.7949219 0.308671875,13.7638281 0.301484375,13.7335156 L0.018125,12.6001562 C-0.002109375,12.5213281 -0.005,12.4403906 0.00796875,12.3601562 L0.29640625,10.63125 C0.32671875,10.45125 0.435859375,10.2980469 0.595625,10.2105469 L2.43945312,9.20445313 C2.51828125,9.16179687 2.60648437,9.1371875 2.6953125,9.13289062 L3.57789062,9.093125 C3.59664062,9.09242188 3.61546875,9.08804687 3.6328125,9.08007812 L5.011875,8.45703125 C5.03289062,8.44765625 5.05453125,8.4396875 5.07625,8.4325 L6.8709375,7.86367187 C6.90203125,7.85351562 6.92953125,7.83328125 6.94828125,7.8065625 L7.56554687,6.91898437 C7.58289062,6.89367188 7.59226562,6.86398438 7.59226562,6.83367188 L7.59226562,5.94101562 C7.59226562,5.725625 7.709375,5.52757813 7.89804687,5.42421875 L9.49328125,4.54671875 C9.52,4.5315625 9.54171875,4.50984375 9.55539062,4.48242188 L9.75492187,4.08265625 C9.78890625,4.01546875 9.83445312,3.95546875 9.89078125,3.905625 L10.9663281,2.949375 C11.1101562,2.82140625 11.3139844,2.7715625 11.5011719,2.81851562 L12.2796094,3.01296875 C12.4473437,3.05484375 12.5875781,3.166875 12.6641406,3.3215625 L12.8094531,3.6121875 C12.8354687,3.66273438 12.8860937,3.69453125 12.9432031,3.69453125 L12.9525781,3.69453125 L13.3378125,3.6721875 C13.3826562,3.66921875 13.423125,3.646875 13.4498437,3.61070312 L13.83,3.09171875 C13.8401562,3.07875 13.8474219,3.06429687 13.8524219,3.0490625 L14.240625,1.83984375 C14.245625,1.8246875 14.2478125,1.80953125 14.2478125,1.79359375 L14.2478125,1.25515625 C14.2478125,0.944296875 14.4914062,0.685546875 14.8014844,0.666015625 L16.6374219,0.55109375 C16.7248437,0.54609375 16.8115625,0.559765625 16.8932813,0.592265625 L18.3865625,1.19007812 C18.4082031,1.19875 18.4313281,1.20164062 18.4552344,1.20015625 L19.8111719,1.08382812 C20.0178906,1.06570312 20.2188281,1.15898438 20.3388281,1.32453125 L20.4552344,1.48351563 C20.5896094,1.66929687 20.6048438,1.91789062 20.4928125,2.118125 L19.6175,3.68734375 C19.5835156,3.74804688 19.5950781,3.82320313 19.6464062,3.87023437 L20.6669531,4.815625 C20.6778125,4.82570312 20.6900781,4.83367187 20.703125,4.84015625 L22.3055469,5.61867187 L23.1657031,6.0653125 C23.2372656,6.10289062 23.3297656,6.07328125 23.3666406,6.00320313 L23.6007813,5.5615625 C23.6058594,5.55140625 23.6102344,5.54132812 23.6123438,5.53117187 L24.2151563,3.3028125 L24.4891406,1.65695312 C24.4905469,1.6490625 24.4913281,1.64039062 24.4913281,1.63242187 L24.4913281,0.663828125 C24.4913281,0.33859375 24.7558594,0.0740625 25.0810938,0.0740625 C25.3174219,0.0740625 25.5285156,0.20921875 25.6239063,0.418828125 L26.265,1.82109375 C26.2816406,1.85648438 26.2939844,1.8940625 26.3033594,1.93234375 L26.5867187,3.14742188 C26.5967969,3.18929687 26.6242969,3.22546875 26.6632813,3.24570312 L27.3449219,3.60273438 C27.5067969,3.68734375 27.618125,3.83914062 27.6513281,4.01835937 L27.8385937,5.028125 C27.8428906,5.05125 27.8522656,5.07367187 27.8667188,5.09242187 L28.2375781,5.57453125 C28.2874219,5.63890625 28.3228125,5.711875 28.3423437,5.790625 L28.6704688,7.1046875 C28.6784375,7.13648437 28.6972656,7.16539062 28.7232813,7.18570312 L30.593125,8.66375 C30.6575,8.71507812 30.7102344,8.77796875 30.7485156,8.85101562 L31.4575781,10.1903125 C31.4835938,10.2394531 31.5342188,10.2698437 31.5898438,10.2698437 L31.6498437,10.2698437 C31.7958594,10.2698437 31.9360937,10.3233594 32.0445312,10.4209375 L32.2888281,10.640625 C32.413125,10.7526563 32.4839844,10.9124219 32.4839844,11.079375 L32.4839844,11.39375 C32.4839844,11.4292187 32.49625,11.4632031 32.519375,11.4899219 L34.0813281,13.3554687 C34.1348437,13.4197656 34.1739062,13.4942187 34.1970312,13.5751562 L34.5042187,14.6738281 L34.9342969,15.9625781 C34.9761719,16.0883594 34.9739844,16.2264062 34.9285156,16.3507031 Z" id="Stroke-19"></path>
            </g>
        </g>
    </g>
</svg>