<?xml version="1.0" encoding="UTF-8"?>
<svg width="36px" height="25px" viewBox="0 0 36 25" version="1.1" xmlns="http://www.w3.org/2000/svg" xmlns:xlink="http://www.w3.org/1999/xlink">
    <title>Group</title>
    <g id="Page-1" stroke="none" stroke-width="1" fill="none" fill-rule="evenodd">
        <g id="shutterstock_1818206117" transform="translate(-689.000000, -988.000000)" fill="#272726">
            <g id="Group" transform="translate(689.088671, 988.191000)">
                <path d="M10.8127483,13.7825096 C9.84280088,13.8593748 9.55814239,13.8266427 9.48961349,13.8135254 C9.40110211,13.7419317 9.17393924,13.4868179 8.95977111,13.1480963 C8.68577812,12.7148564 8.64274834,12.4769054 8.64887794,12.4127898 C8.68994624,12.3635079 8.89173258,12.1631926 9.74877286,11.6865552 C10.005603,11.5437356 10.2558131,11.4128074 10.4422755,11.3171856 C10.4894734,11.415627 10.5407168,11.5251016 10.596251,11.6467128 C10.8825032,12.2737706 11.1784401,12.9914238 11.3944471,13.5155044 C11.4249725,13.5894273 11.4532913,13.658324 11.4797711,13.7221944 C11.2879147,13.7414413 11.0542545,13.7633853 10.8127483,13.7825096 Z M12.6425557,14.483613 C12.4893158,14.2190595 12.3567939,13.990303 12.3045697,13.877641 C12.3039568,13.8761699 12.3032212,13.8746988 12.3026082,13.8732277 C12.2544296,13.7681664 12.1599112,13.539042 12.0403841,13.2491121 C11.8142019,12.7006357 11.5044121,11.9492697 11.2044296,11.2965902 C10.6752002,10.1455744 10.4739042,9.95114361 10.3266713,9.85907706 C10.0836941,9.70718564 9.41630351,9.65520665 7.57080439,9.54585464 C6.45607584,9.47965499 5.01034904,9.39384063 4.23789721,9.25592469 C4.47805482,8.61599475 4.7386853,7.32681786 5.04442961,5.75053065 L5.04467479,5.74905954 C5.22745938,4.80645009 5.34490246,4.22009282 5.4417501,3.82203678 C5.55012137,3.37629247 5.61570806,3.25014536 5.64513013,3.2144711 C5.75411437,3.08256217 6.20378162,2.8964676 7.01963101,2.64527671 C7.69977111,2.43588967 8.48129475,2.22895447 9.05196025,2.07792119 C9.36738932,1.99443608 10.5206117,1.65314011 10.6238342,1.62151138 C10.8080899,1.56511909 10.9118026,1.36995271 10.8554103,1.18569702 C10.799018,1.00131874 10.6038517,0.897728546 10.4194734,0.954120841 C10.3199287,0.984523643 9.17344887,1.32361296 8.8732212,1.40305254 C8.29691647,1.55567951 7.50766954,1.76457618 6.81416691,1.97813135 C5.6273543,2.34345534 5.29856271,2.53813135 5.10719668,2.76958494 C4.87500754,3.05032049 4.75817742,3.55956743 4.35938582,5.61604729 L4.35914064,5.61751839 C4.2242895,6.31285989 4.07141735,7.1010035 3.91572558,7.78849912 C3.7552895,8.49708056 3.64526323,8.85529422 3.57530001,9.03648511 C2.54316165,8.51988266 0.566709815,7.18448862 0.545207188,7.17002277 C0.385408589,7.06177408 0.168224702,7.10370053 0.0600495702,7.26343783 C-0.0480642652,7.42329772 -0.00621137555,7.64040806 0.153587223,7.74865674 C0.250643265,7.81436602 2.54254869,9.36270228 3.53200053,9.78748336 C4.08036656,10.0229825 5.53479738,10.124979 7.5294909,10.2432802 C8.13386918,10.2791996 8.70477987,10.313035 9.15518267,10.3511611 C9.71456971,10.3986042 9.89894799,10.4380788 9.95717917,10.455732 C9.9810846,10.4812312 10.0315925,10.5448564 10.1204716,10.6968704 C9.93045412,10.7942084 9.67656621,10.9273433 9.41176761,11.0744536 C8.41313363,11.6295499 8.16537531,11.8784116 8.06104957,12.0331226 C7.94998127,12.1980088 7.92203031,12.4102154 7.97830001,12.6641033 C8.06497251,13.0548039 8.34019143,13.4891471 8.49661875,13.7132452 C8.58696901,13.8428249 8.90117216,14.2771681 9.14513013,14.4240333 C9.23744186,14.4795674 9.37486743,14.5306883 9.82612838,14.5306883 C10.0550075,14.5306883 10.3644296,14.5175709 10.7895785,14.4852067 C11.1758657,14.455662 11.5517326,14.4179037 11.785638,14.3928949 C11.8520828,14.513035 11.9370391,14.659655 12.0379322,14.8338581 C12.4925032,15.6185692 13.3385102,17.0791296 13.374307,17.8286567 C13.3944121,18.2465727 13.2008394,18.8475184 12.8567238,19.4363275 C12.5066012,20.0351891 12.1673893,20.3390946 12.0645347,20.368394 C11.648335,20.4646287 8.08985868,21.2733678 6.73227549,21.5819317 C6.78118968,21.2596375 6.80595325,20.9328074 6.80595325,20.6049965 C6.80595325,19.7334904 6.63518267,18.8879737 6.2984226,18.0917391 C5.97318617,17.3228424 5.50770456,16.6324046 4.91484992,16.0396725 C4.32187269,15.4466953 3.6314839,14.9812137 2.86263626,14.6559772 C2.06638932,14.3190946 1.22081139,14.1484466 0.349403335,14.1484466 C0.156455875,14.1484466 0,14.3048739 0,14.497711 C0,14.6907933 0.156455875,14.8470981 0.349403335,14.8470981 C3.5242895,14.8470981 6.10730176,17.4301103 6.10730176,20.6049965 C6.10730176,21.0628774 6.0533613,21.5185517 5.94719668,21.9592697 C5.94180263,21.9812137 5.93861524,22.0038932 5.93763451,22.0269405 C5.93763451,22.0279212 5.93751192,22.0290245 5.93751192,22.0300053 C5.93738932,22.0330701 5.93738932,22.0362574 5.93738932,22.0393222 C5.93738932,22.0422644 5.93726673,22.0452067 5.93738932,22.0480263 C5.93738932,22.0492522 5.93751192,22.0504781 5.93751192,22.051704 C5.93873784,22.094366 5.94780964,22.1358021 5.96374659,22.1744186 C5.96423696,22.1756445 5.96472733,22.1768704 5.9652177,22.1782189 C5.96840509,22.1855744 5.97183766,22.1928074 5.97551542,22.1999177 C5.97674134,22.2022469 5.97796726,22.2046988 5.97919318,22.2071506 C5.98274834,22.213648 5.9864261,22.2199002 5.99022645,22.2261524 C5.99182015,22.2287268 5.99353644,22.2311786 5.99513013,22.2336305 C5.99929826,22.2398827 6.00346638,22.2460123 6.00787969,22.2518967 C6.0092282,22.2537356 6.0108219,22.2554518 6.01217041,22.2572907 C6.01658372,22.2630525 6.02124221,22.2684466 6.0260233,22.2738406 C6.02688144,22.2748214 6.02773959,22.2758021 6.02859773,22.2767828 C6.03435955,22.2832802 6.04061174,22.2894098 6.04686393,22.2954168 C6.04772207,22.2961524 6.04845763,22.2968879 6.04931577,22.2976235 C6.05593573,22.3037531 6.06280088,22.3096375 6.06991122,22.3152767 C6.0701564,22.3155219 6.07052418,22.3157671 6.07076936,22.3160123 C6.08560299,22.3276585 6.10141735,22.3382014 6.11821244,22.3473958 C6.11833503,22.3475184 6.11833503,22.3475184 6.11845763,22.3475184 C6.1264261,22.3519317 6.13463976,22.3559772 6.14309861,22.3597776 C6.14407934,22.360268 6.14506008,22.3606357 6.14604081,22.3611261 C6.15400929,22.3646813 6.16222295,22.3679912 6.1705592,22.3709335 C6.17153994,22.3711786 6.17252067,22.3715464 6.17350141,22.3719142 C6.18012137,22.3741208 6.18710911,22.3762049 6.19409686,22.3781664 C6.19691647,22.3789019 6.19973609,22.3796375 6.2025557,22.380373 C6.20329125,22.3806182 6.2041494,22.3808634 6.20488495,22.3811086 C6.21150491,22.3825797 6.21812488,22.3839282 6.22474484,22.3851541 C6.22805482,22.3857671 6.23136481,22.3862574 6.23467479,22.3867478 C6.24031402,22.387606 6.24607584,22.3883415 6.25171507,22.3889545 C6.25490246,22.3891996 6.25796726,22.3895674 6.26115465,22.3898126 C6.26924572,22.390303 6.27721419,22.3907933 6.28506008,22.3907933 C6.28555045,22.3907933 6.28591822,22.3907933 6.28640859,22.3907933 C6.28653118,22.3907933 6.28665377,22.3907933 6.28677637,22.3907933 C6.28689896,22.3907933 6.28689896,22.3907933 6.28702155,22.3907933 C6.28738932,22.3907933 6.2877571,22.3907933 6.28812488,22.3907933 C6.29609335,22.3907933 6.30393924,22.3904256 6.31190771,22.3898126 C6.31484992,22.3895674 6.31766954,22.3893222 6.32061174,22.3890771 C6.3273543,22.3883415 6.33409686,22.387606 6.34083941,22.3865026 C6.34439458,22.3858897 6.34794975,22.3852767 6.35150491,22.3845412 C6.35567304,22.3838056 6.35996376,22.3830701 6.36413188,22.3820893 C6.41745938,22.3699527 11.7075469,21.1680613 12.2219427,21.0492697 C12.7535014,20.9264326 13.2954804,20.0679212 13.4489655,19.8076585 C13.6490356,19.4682014 14.1104716,18.5927723 14.0723455,17.7951891 C14.028335,16.8759947 13.194342,15.436275 12.6425557,14.483613 L12.6425557,14.483613 Z" id="Fill-11"></path>
                <path d="M13.72492,20.8337531 L13.3510145,20.8337531 C13.1580548,20.8337531 13.0016275,20.9901804 13.0016275,21.1831401 C13.0016275,21.3759772 13.1580548,21.5325271 13.3510145,21.5325271 L13.3755329,21.5325271 L13.3755329,21.9924921 L10.1415575,21.9924921 C9.94859773,21.9924921 9.79217041,22.1489194 9.79217041,22.3418792 C9.79217041,22.5348389 9.94859773,22.6912662 10.1415575,22.6912662 L13.72492,22.6912662 C13.9178797,22.6912662 14.074307,22.5348389 14.074307,22.3418792 L14.074307,21.1831401 C14.074307,20.9901804 13.9178797,20.8337531 13.72492,20.8337531" id="Fill-12"></path>
                <path d="M0.349403335,16.4020543 C0.156455875,16.4020543 4.081359e-05,16.5584816 4.081359e-05,16.7514413 C4.081359e-05,16.9444011 0.156455875,17.1008284 0.349403335,17.1008284 C2.28161174,17.1008284 3.85357146,18.6728249 3.85357146,20.6049965 C3.85357146,22.5371681 2.28161174,24.1091646 0.349403335,24.1091646 C0.156455875,24.1091646 4.081359e-05,24.2655919 4.081359e-05,24.4585517 C4.081359e-05,24.6515114 0.156455875,24.8079387 0.349403335,24.8079387 C1.47195325,24.8079387 2.52740859,24.3707758 3.32120369,23.5768704 C4.11506008,22.7830876 4.55234554,21.7276935 4.55234554,20.6049965 C4.55234554,19.4824221 4.11506008,18.427028 3.32120369,17.6331226 C2.52734729,16.8393398 1.47195325,16.4020543 0.349403335,16.4020543" id="Fill-13"></path>
                <path d="M29.1740793,15.6120718 C29.3712072,15.2663625 29.4752877,14.8952767 29.4752877,14.5387793 L29.4752877,8.34776357 C29.4752877,7.73247461 29.2357431,7.15396322 28.8006643,6.71888441 C28.3655855,6.2838056 27.7870741,6.04426095 27.1717851,6.04426095 C26.7067939,6.04426095 26.2563911,6.18867426 25.8692457,6.46180911 C25.5107869,6.71483888 25.2191406,7.06729072 25.0260583,7.48116112 C25.0226258,7.48839405 25.0196835,7.49574956 25.0168639,7.50298249 C25.0153928,7.50604729 25.0137991,7.5088669 25.0124506,7.5119317 L23.7550251,10.2633853 L20.8644296,10.3111961 C20.8571967,10.3113187 20.8498412,10.3114413 20.8426082,10.3116865 C20.4666187,10.3235779 20.1166187,10.4801278 19.8568464,10.7524046 C19.5968289,11.025049 19.4570741,11.3826497 19.4633263,11.7593748 C19.4761984,12.5369755 20.1128184,13.1608459 20.8877221,13.1608459 C20.8956906,13.1608459 20.903659,13.1607233 20.9115049,13.1606007 L24.7014349,13.0980788 C24.7085452,13.0979562 24.7157781,13.097711 24.7226433,13.0975884 C24.9879322,13.0891296 25.2451301,13.006993 25.4661634,12.8600053 C25.6875645,12.7128949 25.8628709,12.5073082 25.9735715,12.2653117 L27.3848499,9.16949737 C27.4636765,8.99652014 27.3874244,8.79228196 27.2144471,8.71345534 C27.0414699,8.63450613 26.8372317,8.71088091 26.7582825,8.88385814 L25.3471266,11.9794273 C25.2299287,12.2356445 24.982293,12.4004081 24.7005767,12.4093573 C24.6966538,12.4094799 24.6928534,12.4094799 24.6895434,12.4096025 L20.9002265,12.4721243 C20.8960583,12.4721243 20.8920128,12.4722469 20.8878447,12.4722469 C20.4874594,12.4721243 20.1584226,12.1498301 20.1518026,11.7479737 C20.1451827,11.3482014 20.4649025,11.0125447 20.8641844,10.9999177 C20.8681074,10.9997951 20.8721529,10.9996725 20.8759532,10.9996725 L23.9835364,10.9483065 C24.1163035,10.9462224 24.2358307,10.8678862 24.290997,10.7472557 L25.6387729,7.79818389 C25.6417151,7.79168651 25.6444121,7.78506655 25.6468639,7.77856918 C25.6479673,7.77648511 25.6490706,7.77440105 25.6500513,7.77231699 C25.9491757,7.13116112 26.5323455,6.73285989 27.1717851,6.73285989 C28.062293,6.73285989 28.7866888,7.45725569 28.7866888,8.34776357 L28.7866888,14.5387793 C28.7866888,15.1052767 28.3948849,15.6069229 28.0593508,15.864366 C28.0527308,15.8695149 25.0448149,18.1819667 25.0448149,18.1819667 C24.9808219,18.2311261 24.9360758,18.3012487 24.9185452,18.3800753 L23.8144821,23.3300928 C23.7124856,23.7873608 23.298983,24.1193398 22.8314173,24.1193398 C22.757617,24.1193398 22.6833263,24.1111261 22.6105067,24.0948214 C22.0677921,23.9738231 21.7246573,23.433683 21.8457781,22.8909685 L23.0573543,17.459042 C23.1089655,17.2273433 23.2413648,17.0204081 23.4304016,16.8763625 L26.0140268,14.9028774 C26.1651827,14.7873958 26.1941144,14.5713888 26.0786328,14.4202329 C25.9632737,14.2691996 25.7471441,14.240268 25.5961109,14.355627 L23.0126082,16.3289895 C22.6949725,16.5711086 22.472223,16.9192697 22.3851827,17.3091121 L21.1737291,22.7410385 C20.9699813,23.6543485 21.5472667,24.5632452 22.4606993,24.7668704 C22.5825557,24.7940858 22.7073543,24.8079387 22.8314173,24.8079387 C23.2112072,24.8079387 23.5852352,24.6775009 23.8843596,24.4405306 C24.1881424,24.1998827 24.4020653,23.8588319 24.4865312,23.4799002 L25.5633788,18.6518616 C25.5633788,18.6518616 28.4960233,16.3977636 28.5032562,16.3911436 C28.7721004,16.1796725 29.0036765,15.910951 29.1740793,15.6120718" id="Fill-14"></path>
                <path d="M34.9475469,21.5635429 C34.8417501,21.1227023 34.5706993,20.7494098 34.1841669,20.5125622 L30.1844821,18.0610911 L29.8517676,17.0240858 C29.7937816,16.8430175 29.5998412,16.7432277 29.4187729,16.8013363 C29.2377046,16.8594448 29.1380373,17.0532627 29.1961459,17.234331 L29.5677221,18.3930701 C29.592976,18.4715289 29.6454454,18.5383415 29.7156906,18.5814939 L33.8243596,21.099655 C34.0539743,21.2403905 34.2150601,21.462282 34.2779497,21.7241384 C34.3408394,21.9861173 34.2979322,22.2569229 34.1571967,22.4866602 C33.972328,22.7882364 33.6504016,22.968324 33.2959883,22.968324 C33.1108744,22.968324 32.9291932,22.9168354 32.770314,22.8194974 L28.2353928,20.0399702 C28.0309095,19.9146813 27.8774244,19.7198827 27.8032562,19.4917391 L27.5692282,18.7506708 C27.5119778,18.5693573 27.3186503,18.4687093 27.1373368,18.5259597 C26.9560233,18.5832102 26.8553753,18.7766602 26.9126258,18.9579737 L27.1470215,19.7003905 C27.1473893,19.7012487 27.1476345,19.7019842 27.1478797,19.7028424 C27.2723105,20.0875359 27.5308569,20.4158371 27.8755855,20.627063 L32.4103841,23.4065902 C32.6776345,23.570373 32.9838692,23.6569229 33.2959883,23.6569229 C33.5810145,23.6569229 33.8638342,23.5845937 34.1136765,23.4476585 C34.3717326,23.3064326 34.5898237,23.0985166 34.7442895,22.8464676 C34.9811371,22.4599352 35.0533438,22.0042609 34.9475469,21.5635429" id="Fill-15"></path>
                <path d="M26.1992632,0.68858669 C27.4094909,0.68858669 28.3941494,1.67324518 28.3941494,2.88347285 C28.3941494,4.09370053 27.4094909,5.07823643 26.1992632,5.07823643 C24.9890356,5.07823643 24.0043771,4.09370053 24.0043771,2.88347285 C24.0043771,1.67324518 24.9890356,0.68858669 26.1992632,0.68858669 Z M26.1992632,5.76683538 C26.9693858,5.76683538 27.6935364,5.46697548 28.2380899,4.92229947 C28.7827659,4.37774606 29.0826258,3.65359545 29.0826258,2.88347285 C29.0826258,2.11322767 28.7827659,1.38919965 28.2380899,0.844523643 C27.6935364,0.299970228 26.9693858,0 26.1992632,0 C25.429018,0 24.70499,0.299970228 24.160314,0.844523643 C23.6157606,1.38919965 23.3157781,2.11322767 23.3157781,2.88347285 C23.3157781,3.65359545 23.6157606,4.37774606 24.160314,4.92229947 C24.70499,5.46697548 25.429018,5.76683538 26.1992632,5.76683538 L26.1992632,5.76683538 Z" id="Fill-16"></path>
                <path d="M23.016286,14.9384291 C23.080892,14.8734553 23.116934,14.7854343 23.1164486,14.6938581 L23.1138692,14.1813012 C23.1128884,13.9917741 22.958913,13.8387793 22.769631,13.8387793 C22.769018,13.8387793 22.7684051,13.8387793 22.7677921,13.8387793 C22.577652,13.8397601 22.4242895,13.9947163 22.4252702,14.1848564 L22.4261284,14.3512137 L15.8590005,14.3512137 L15.8590005,6.73335026 L22.4274769,6.73335026 L22.4252702,8.63303503 C22.4250251,8.82317513 22.5790005,8.97751839 22.7691406,8.97776357 C22.7693858,8.97776357 22.7695084,8.97776357 22.769631,8.97776357 C22.9595259,8.97776357 23.113624,8.82391068 23.1138692,8.63389317 L23.1164486,6.38947986 C23.1165662,6.29814886 23.0804016,6.21037303 23.0157956,6.14576708 C22.9511897,6.08116112 22.8635364,6.04475131 22.7722054,6.04475131 L15.5147624,6.04475131 C15.3246222,6.04475131 15.1705242,6.19897198 15.1705242,6.38911208 L15.1705242,14.6955744 C15.1705242,14.8857145 15.3246222,15.0398126 15.5147624,15.0398126 L22.7722054,15.0398126 C22.8637816,15.0398126 22.95168,15.0034028 23.016286,14.9384291" id="Fill-17"></path>
                <path d="M18.4904366,7.74669527 C18.3002965,7.74669527 18.1460758,7.90079335 18.1460758,8.09093345 C18.1460758,8.28107356 18.3002965,8.43529422 18.4904366,8.43529422 L19.8044997,8.43529422 C19.9946398,8.43529422 20.1488604,8.28107356 20.1488604,8.09093345 C20.1488604,7.90079335 19.9946398,7.74669527 19.8044997,7.74669527 L18.4904366,7.74669527" id="Fill-18"></path>
            </g>
        </g>
    </g>
</svg>