<?xml version="1.0" encoding="UTF-8"?>
<svg width="44px" height="29px" viewBox="0 0 44 29" version="1.1" xmlns="http://www.w3.org/2000/svg" xmlns:xlink="http://www.w3.org/1999/xlink">
    <title>Group</title>
    <g id="Page-1" stroke="none" stroke-width="1" fill="none" fill-rule="evenodd">
        <g id="shutterstock_1565123161" transform="translate(-366.000000, -669.000000)" fill="#000000">
            <g id="Group" transform="translate(366.070000, 669.766000)">
                <path d="M32.4100603,6.68278725 L32.4445478,6.72067528 C33.744944,6.27619638 34.6339018,5.75184152 35.0885099,5.16003101 C35.4411025,4.70038243 35.4782429,4.35953488 35.4032386,4.20711456 C35.3342636,4.06655986 35.1574849,4.04555383 35.0581223,4.04555383 C34.8174332,4.04555383 34.5294746,4.15916968 34.2475452,4.36537123 C33.3267528,5.04048234 32.6693196,6.17943842 32.4100603,6.68278725 Z M32.1886649,7.71058742 L31.3829113,6.84444444 L31.4984324,6.58434109 C31.5326787,6.50774505 32.3526615,4.68530922 33.7381912,3.67012231 C34.6818949,2.97902153 35.8091301,3.08002412 36.1761929,3.82584668 C36.4303876,4.3418329 36.2830319,5.01947631 35.7719897,5.68532644 C35.1794315,6.45642377 34.0616021,7.11040827 32.4486477,7.62731094 L32.1886649,7.71058742 L32.1886649,7.71058742 Z" id="Fill-1"></path>
                <path d="M28.7264083,4.04555383 C28.6280103,4.04555383 28.4509905,4.06655986 28.3820155,4.20627046 C28.3070112,4.35953488 28.3441516,4.70038243 28.6967442,5.16003101 C29.1513523,5.75184152 30.0395866,6.27619638 31.3399828,6.72067528 L31.3747115,6.68278725 C31.113764,6.17943842 30.4553661,5.03802239 29.5369854,4.36537123 C29.2557795,4.15916968 28.9670973,4.04555383 28.7264083,4.04555383 Z M31.5961068,7.71058742 L31.3358829,7.62731094 C29.7238932,7.11040827 28.6060637,6.4571714 28.0135056,5.68532644 C27.5014987,5.01947631 27.3543842,4.3409888 27.6093023,3.82584668 C27.9763652,3.08086822 29.101671,2.97986563 30.0463394,3.67012231 C31.4325926,4.68530922 32.2516107,6.50774505 32.2863394,6.58434109 L32.4016193,6.84444444 L31.5961068,7.71058742 L31.5961068,7.71058742 Z" id="Fill-2"></path>
                <path d="M3.25091817,0.861898363 C0.944427218,0.861898363 0.86445478,3.41841171 0.861922481,3.52787941 L0.861922481,24.4686236 C0.86445478,24.5672627 0.957064599,27.1253678 3.25091817,27.1253678 L39.3849785,27.1253678 C41.6787597,27.1253678 41.7713695,24.5672627 41.7737812,24.4584944 L41.7737812,3.51854608 C41.7713695,3.42009991 41.6787597,0.861898363 39.3849785,0.861898363 L3.25091817,0.861898363 Z M39.3849785,27.9873144 L3.25091817,27.9873144 C0.737381568,27.9873144 0.025250646,25.6916038 0,24.4780293 L0,3.51854608 C0.025250646,2.29544531 0.737381568,0 3.25091817,0 L39.3849785,0 C41.8984668,0 42.610646,2.29544531 42.6357278,3.50930922 L42.6357278,24.4686236 C42.610646,25.6916038 41.8984668,27.9873144 39.3849785,27.9873144 L39.3849785,27.9873144 Z" id="Fill-3"></path>
                <polygon id="Fill-4" points="0.430925065 7.64747287 42.2047545 7.64747287 42.2047545 6.78547804 0.430925065 6.78547804"></polygon>
                <polygon id="Fill-5" points="31.461292 27.5563411 32.3232386 27.5563411 32.3232386 0.430997416 31.461292 0.430997416"></polygon>
                <polyline id="Fill-6" points="34.9546598 10.9126202 30.9965547 6.95383979 31.6059948 6.34439966 35.5640999 10.30318 34.9546598 10.9126202"></polyline>
                <polyline id="Fill-7" points="28.8308355 10.9126202 28.2213953 10.30318 32.1785357 6.34439966 32.7879759 6.95383979 28.8308355 10.9126202"></polyline>
                <polygon id="Fill-8" points="5.10615332 22.9482791 16.6417916 22.9482791 16.6417916 22.0863325 5.10615332 22.0863325"></polygon>
                <polygon id="Fill-9" points="7.543118 19.5477623 14.2226253 19.5477623 14.2226253 18.6855745 7.543118 18.6855745"></polygon>
            </g>
        </g>
    </g>
</svg>