<?xml version="1.0" encoding="UTF-8"?>
<svg width="31px" height="22px" viewBox="0 0 31 22" version="1.1" xmlns="http://www.w3.org/2000/svg" xmlns:xlink="http://www.w3.org/1999/xlink">
    <title>Fill 4</title>
    <g id="Page-1" stroke="none" stroke-width="1" fill="none" fill-rule="evenodd">
        <g id="shutterstock_708779101-1" transform="translate(-117.000000, -149.000000)" fill="#000000">
            <path d="M132.381008,153.23925 C132.193919,153.052161 131.934926,152.936277 131.649266,152.936277 C131.363467,152.936277 131.104474,153.052161 130.917525,153.23925 C130.730436,153.426339 130.614553,153.685192 130.614553,153.971131 C130.614553,154.25693 130.730436,154.515783 130.917525,154.702872 C131.104474,154.889961 131.363467,155.005844 131.649266,155.005844 C131.927806,155.005844 132.180236,154.896802 132.364952,154.719626 L132.380868,154.702872 C132.567818,154.515783 132.683701,154.25693 132.683701,153.971131 C132.683701,153.692173 132.5741,153.439463 132.396087,153.25363 L132.381008,153.23925 Z M145.009934,150.637596 L119.105926,150.637596 C118.730073,150.637596 118.388566,150.791176 118.141441,151.038301 C117.894176,151.285705 117.740596,151.627073 117.740596,152.002926 L117.740596,168.724773 C117.740596,169.101325 117.893478,169.442832 118.140184,169.68912 L118.141441,169.690516 C118.387868,169.937222 118.729235,170.090104 119.105926,170.090104 L145.009934,170.090104 C145.385787,170.090104 145.727155,169.936524 145.974559,169.68912 C146.221684,169.442134 146.375265,169.100487 146.375265,168.724773 L146.375265,152.002926 C146.375265,151.627073 146.222382,151.285426 145.975955,151.038301 L145.974559,151.036905 C145.727434,150.790478 145.385927,150.637596 145.009934,150.637596 Z M119.105926,149.955 C118.541727,149.955 118.029606,150.184952 117.658779,150.555779 C117.287952,150.926467 117.058,151.438727 117.058,152.002926 L117.058,168.724773 C117.058,169.285622 117.286416,169.795649 117.655428,170.167034 L117.658779,170.170385 L117.659477,170.171083 L117.660315,170.171781 C118.0317,170.542748 118.543403,170.7727 119.105926,170.7727 L145.009934,170.7727 C145.574273,170.7727 146.086394,170.542608 146.457221,170.171781 C146.827908,169.801094 147.058,169.288972 147.058,168.724773 L147.058,152.002926 C147.058,151.439705 146.827908,150.927863 146.457221,150.557036 L146.455825,150.555779 C146.084998,150.184952 145.573156,149.955 145.009934,149.955 L119.105926,149.955 Z M125.580183,158.202414 C125.174032,157.796263 124.612347,157.54467 123.9923,157.54467 C123.372254,157.54467 122.810568,157.796263 122.404417,158.202414 C121.998266,158.608564 121.746674,159.17025 121.746674,159.790297 C121.746674,160.410343 121.998266,160.972029 122.404417,161.378179 C122.78767,161.761572 123.309146,162.007162 123.887726,162.033549 L123.994115,162.032153 L124.098131,162.03341 C124.676013,162.006463 125.197209,161.761153 125.580183,161.378179 C125.986334,160.972029 126.237927,160.410343 126.237927,159.790297 C126.237927,159.17025 125.986334,158.608564 125.580183,158.202414 Z M124.104554,162.716424 C124.067275,162.71782 124.029997,162.718519 123.9923,162.718519 C123.955162,162.718519 123.918581,162.71796 123.881862,162.716564 C122.857759,162.745744 121.933623,163.17214 121.258288,163.847056 C120.634053,164.47171 120.222317,165.309143 120.14092,166.241795 L127.84745,166.241795 C127.766751,165.317799 127.361717,164.486789 126.747116,163.86409 L126.729524,163.847754 C126.053909,163.17214 125.128796,162.745325 124.104554,162.716424 Z M123.9923,156.862074 C124.800971,156.862074 125.533132,157.190039 126.062845,157.719752 C126.592558,158.249605 126.920662,158.981625 126.920662,159.790297 C126.920662,160.598689 126.592558,161.331128 126.062845,161.860841 C125.898234,162.025452 125.714217,162.170515 125.514283,162.292402 C126.1596,162.520958 126.738041,162.891087 127.212186,163.365093 L127.231174,163.385756 C128.043196,164.207691 128.544985,165.337066 128.544985,166.583023 C128.544985,166.771509 128.392103,166.924251 128.203618,166.924251 L119.784613,166.924251 C119.596267,166.924251 119.443385,166.771509 119.443385,166.583023 C119.443385,165.327433 119.952853,164.18996 120.776184,163.366489 L120.777581,163.365093 C121.251027,162.891925 121.828071,162.522215 122.471993,162.29338 C122.271221,162.171213 122.086785,162.02587 121.921755,161.860841 C121.392042,161.331128 121.063938,160.598689 121.063938,159.790297 C121.063938,158.981625 121.392042,158.249605 121.921755,157.719752 C122.451469,157.190039 123.183768,156.862074 123.9923,156.862074 Z M131.649127,164.069469 C131.460642,164.069469 131.307759,163.916447 131.307759,163.728101 C131.307759,163.539616 131.460642,163.386873 131.649127,163.386873 L144.11456,163.386873 C144.302905,163.386873 144.455788,163.539616 144.455788,163.728101 C144.455788,163.916447 144.302905,164.069469 144.11456,164.069469 L131.649127,164.069469 Z M131.649127,166.924251 C131.460642,166.924251 131.307759,166.771509 131.307759,166.583023 C131.307759,166.394678 131.460642,166.241795 131.649127,166.241795 L141.965689,166.241795 C142.154174,166.241795 142.307056,166.394678 142.307056,166.583023 C142.307056,166.771509 142.154174,166.924251 141.965689,166.924251 L131.649127,166.924251 Z M131.649266,152.253682 C132.123551,152.253682 132.553018,152.445936 132.863669,152.756588 L132.882937,152.77781 C133.182279,153.086926 133.366297,153.507736 133.366297,153.971131 C133.366297,154.445276 133.174042,154.874882 132.86339,155.185534 L132.841889,155.20536 C132.532354,155.504423 132.111683,155.68844 131.649266,155.68844 C131.175121,155.68844 130.745375,155.496185 130.434863,155.185534 C130.124212,154.874882 129.931817,154.445276 129.931817,153.971131 C129.931817,153.496567 130.124212,153.067239 130.434863,152.756588 C130.745375,152.445936 131.175121,152.253682 131.649266,152.253682 L131.649266,152.253682 Z" id="Fill-4"></path>
        </g>
    </g>
</svg>