<?xml version="1.0" encoding="UTF-8"?>
<svg width="89px" height="91px" viewBox="0 0 89 91" version="1.1" xmlns="http://www.w3.org/2000/svg" xmlns:xlink="http://www.w3.org/1999/xlink">
    <title>Group</title>
    <g id="Page-1" stroke="none" stroke-width="1" fill="none" fill-rule="evenodd">
        <g id="shutterstock_1477845125" transform="translate(-379.000000, -367.000000)" fill="#81CC1F">
            <g id="Group" transform="translate(379.567000, 367.920439)">
                <path d="M88.2784743,51.6272415 L88.2692253,50.7770439 C88.265668,50.4938818 88.2670909,50.2107198 88.2478814,49.9275577 L88.2037708,49.0802059 L88.1340474,48.2342771 C88.0294625,47.1087435 87.8900158,45.9867672 87.6808458,44.8780953 L87.6068538,44.462032 L87.5207668,44.0481032 C87.4617154,43.7724826 87.4076443,43.496364 87.3443241,43.2220241 L87.1465375,42.4014945 L87.0967352,42.1966644 L86.9281186,41.5867988 C85.7293043,37.2531387 83.7315178,33.1788779 81.0983953,29.6292494 C78.4645613,26.0807593 75.2060632,23.0440241 71.5334941,20.7563166 C74.7898577,23.6012415 77.5481976,26.9246961 79.6527036,30.5809727 C81.7629012,34.232198 83.2213992,38.2047909 83.9620316,42.2733601 L84.0310435,42.6548463 L84.0651937,42.8453047 L84.2110435,43.8022929 C84.2466166,44.0577791 84.2743636,44.3144747 84.3063794,44.570032 L84.351913,44.9536526 L84.3867747,45.3386249 C84.4081186,45.5954629 84.4372885,45.8508779 84.4529407,46.1077158 L84.5020316,46.8775182 C84.5191067,47.1336447 84.5212411,47.3911941 84.531913,47.648032 L84.5447194,48.0329332 C84.5482767,48.1609964 84.5461423,48.2897712 84.5468538,48.4178344 L84.5482767,49.1876368 L84.5290672,49.9560162 C84.5276443,50.2121427 84.5055889,50.4682692 84.4899368,50.7236842 L84.4401344,51.4899293 C84.4187905,52.0007593 84.3455099,52.508032 84.2893043,53.0145933 L84.2039289,53.7751466 L84.0787115,54.5292968 C83.7514387,56.5398897 83.2647984,58.5170439 82.6017154,60.4294549 C81.9372095,62.3404431 81.1033755,64.1852652 80.1279605,65.9454233 C79.1475652,67.7027356 78.0248775,69.3753838 76.7655889,70.934198 C75.5084348,72.4944352 74.1232174,73.9486644 72.6191858,75.2613127 C71.1165771,76.5760953 69.5015573,77.7549885 67.8054308,78.7915893 L67.4881186,78.987953 C67.3821107,79.0519846 67.2789486,79.1217079 67.1686719,79.1793364 L66.5162609,79.5393364 L65.8645613,79.9000478 L65.1972095,80.2301664 L64.5305692,80.560285 L64.3633755,80.6428146 L64.1926245,80.7168067 L63.851834,80.8647909 L63.170253,81.1621822 C63.056419,81.2105617 62.9440079,81.2632099 62.828751,81.3087435 L62.4808458,81.4396526 C58.7961818,82.9066881 54.8582372,83.6757791 50.9060632,83.7874787 L50.1647194,83.8017079 L49.793336,83.8102455 C49.670253,83.8116684 49.5464585,83.8038423 49.422664,83.8009964 C48.9289091,83.7839214 48.4337312,83.7753838 47.9399763,83.7533285 L46.4629802,83.6338028 C46.4017945,83.6281111 46.3398972,83.6259767 46.2787115,83.6181506 L46.0951542,83.5932494 L45.7280395,83.5441585 L44.9938103,83.4481111 C43.0404901,83.164949 41.1142055,82.711036 39.2411383,82.0949095 C37.367004,81.4823403 35.5445929,80.7075577 33.8057787,79.7719846 C32.066253,78.8385459 30.4110356,77.7478739 28.8557787,76.5284273 C25.7454783,74.0881111 23.0515968,71.1085063 20.9350672,67.752538 L20.0784664,66.3139609 L19.9913123,66.149613 L19.8175731,65.8209174 L19.4686008,65.1635261 C19.4107589,65.0539609 19.3498577,64.9451071 19.2942213,64.834119 L19.1357075,64.4975972 L18.8176126,63.8238423 C18.5940711,63.3798897 18.4188379,62.9145933 18.2256759,62.4571229 C17.4789249,60.6158581 16.881083,58.7098502 16.4574071,56.7604431 L16.3110593,56.0269253 L16.236498,55.6598107 C16.2130198,55.5374391 16.1827115,55.4157791 16.1675573,55.2919846 L15.9447273,53.8092968 C15.9226719,53.6862138 15.9166957,53.5609964 15.9028221,53.4364905 L15.8661818,53.0629727 L15.7919763,52.3159372 C15.7804506,52.1914312 15.7648696,52.0669253 15.7564743,51.9417079 L15.7386877,51.5667672 L15.7005534,50.8154629 L15.6809881,50.4390992 L15.6710988,50.2512731 C15.6685375,50.1886644 15.6699605,50.1260557 15.6691779,50.063447 L15.6651937,49.3100083 C15.6523162,48.8077158 15.684332,48.3061348 15.6979921,47.8038423 L15.7115099,47.4267672 L15.7394704,47.051115 L15.7933992,46.2990992 C15.8062055,46.0472415 15.8430593,45.7989411 15.8688854,45.5485063 L15.9527668,44.7982692 C16.2130198,42.8017632 16.6493597,40.8242534 17.2550988,38.8934866 C17.8567826,36.9612257 18.630498,35.0764905 19.5582451,33.2621901 L19.9216601,32.5899293 C20.0449565,32.3668858 20.1583636,32.1376526 20.2917628,31.9203008 L20.6794387,31.2598502 C20.7444664,31.1499293 20.807502,31.0386565 20.8742372,30.9296605 L21.0808458,30.6070123 L21.4940632,29.960364 C21.5612253,29.8512257 21.6353597,29.7469964 21.7084269,29.6419846 L21.9275573,29.3266644 C22.0746877,29.1172099 22.2176206,28.9040557 22.3668854,28.6956684 L22.8278419,28.0797553 C23.1281502,27.6626249 23.4609723,27.2717474 23.7820553,26.8697712 C23.940498,26.6667198 24.1123162,26.475621 24.2812885,26.281534 L24.7879209,25.6980636 C24.9598814,25.5062534 25.13917,25.3213443 25.3146166,25.1322376 L25.5792095,24.8498581 C25.6676443,24.7558028 25.7544427,24.6599688 25.8477154,24.5709648 L26.3986008,24.0264115 L26.6737233,23.7528542 C26.7668538,23.6631387 26.8633281,23.5772652 26.9579526,23.4891862 C27.7424822,22.7556684 28.5613755,22.0556605 29.4104348,21.3900874 C31.1639763,22.4360795 34.0404901,23.9628779 36.8090751,24.5950834 C41.7977075,25.7342059 46.1449565,25.7152099 52.0892253,23.0630913 C59.74883,19.6457237 66.3796601,9.47380277 68.8697787,4.7781506 C68.8697787,4.7781506 61.6840079,5.27617431 50.6357075,1.41947866 C39.5324822,-2.45663991 26.6353755,1.30158933 25.7711621,16.4639925 C25.7711621,16.4639925 36.062751,10.6504194 48.5539684,13.4786249 C48.5539684,13.4786249 48.4828221,13.4847435 48.353336,13.4967672 C44.4844032,13.3487119 40.5493043,13.8622455 36.7789802,15.0259134 L36.3824111,15.1472889 C36.2502213,15.1879134 36.1173202,15.2268304 35.9876206,15.2743561 L35.2039447,15.5479846 L34.811502,15.6852968 C34.6808775,15.7317553 34.5535257,15.7859688 34.4243241,15.8359846 L33.650751,16.1426961 C33.3906403,16.240949 33.1397787,16.3591941 32.885004,16.4700399 L32.1222451,16.8079134 C31.8712411,16.9271546 31.6228696,17.0523008 31.3727194,17.1744589 L30.9979209,17.3591546 C30.8727036,17.4204115 30.7473439,17.4815261 30.6258261,17.5494708 C28.6516601,18.5850044 26.7639368,19.8036684 24.9919684,21.1844747 C24.8809091,21.2704194 24.7679289,21.3542297 24.6583636,21.4420953 L24.3338656,21.7107435 L23.6854387,22.2504589 C23.5758024,22.3389648 23.4726403,22.4343719 23.3677708,22.5280715 L23.0536601,22.8100953 C22.8451304,22.999202 22.6326166,23.184538 22.4272174,23.3774154 L21.8198419,23.9657949 C21.6176443,24.1625142 21.4133834,24.3576684 21.2219289,24.5647751 C20.8348933,24.9752889 20.4357628,25.3767672 20.0687905,25.806704 L19.5075889,26.4436051 C19.3244585,26.6592494 19.1484427,26.8807988 18.9692253,27.1001427 L18.7014308,27.4301901 C18.6121423,27.5401822 18.5217154,27.649534 18.438332,27.7640083 L17.9275731,28.4440953 L17.6721581,28.7848146 C17.5892016,28.8998581 17.5098735,29.0174629 17.4284822,29.133787 L16.9434071,29.8342929 L16.8222451,30.0098107 L16.7073439,30.1892415 L16.4789644,30.5492415 L16.0223478,31.2703798 C13.6639209,35.1641427 11.9934783,39.5101822 11.1560158,44.0340162 C10.7402372,46.2955419 10.5254466,48.5978344 10.5206798,50.9029727 C10.5057391,53.2081111 10.6908617,55.5246328 11.1029407,57.80487 C11.916498,62.3667672 13.5509407,66.7991783 15.9272253,70.8054233 C18.3069249,74.8102455 21.4191462,78.3796526 25.0535099,81.3087435 C26.870585,82.7743561 28.8224111,84.074198 30.8715652,85.1990202 C32.9244901,86.3181506 35.0842767,87.2402059 37.3043953,87.9751466 C39.527004,88.7036842 41.8142846,89.2323008 44.1281739,89.5609964 L44.9980791,89.6684273 L45.4327826,89.721787 L45.6504901,89.7481111 C45.7230593,89.7566486 45.7956285,89.7594945 45.8689091,89.7658976 L47.6155494,89.8918265 C48.1989486,89.9131704 48.7823478,89.920285 49.3650356,89.9338028 C49.5108854,89.9352257 49.6567352,89.9423403 49.802585,89.94016 L50.2401344,89.9273996 L51.1145217,89.9010755 C53.4445613,89.8021822 55.7696206,89.5104826 58.0484348,89.0074787 C60.3286719,88.508032 62.5598182,87.7930123 64.704166,86.8816289 L65.1082767,86.7158581 C65.2420316,86.6582297 65.3729407,86.594198 65.5052727,86.5337237 L66.296419,86.1644747 L66.8897787,85.8870044 L67.0832964,85.7859767 L67.8552332,85.3790202 C68.1120711,85.2431308 68.370332,85.1086644 68.6250356,84.9692178 L69.374917,84.5238423 L70.124087,84.0777553 C70.2507273,84.0058976 70.36883,83.9212336 70.4912016,83.8429727 L70.8540474,83.6024984 C72.8006087,82.3339609 74.6255099,80.8875577 76.3109644,79.2988621 C79.6740474,76.1122217 82.4416364,72.3243957 84.4557866,68.1886644 C85.4660632,66.1225775 86.2813992,63.9668463 86.9046403,61.763447 C87.5136522,59.5550676 87.9213202,57.2983087 88.1233755,55.0308779 L88.2023478,54.1813917 L88.2393439,53.3290597 C88.2606877,52.7613127 88.2955494,52.1949885 88.2784743,51.6272415" id="Fill-3"></path>
                <path d="M34.5791383,53.2522217 L34.5791383,37.3240004 L32.7226482,37.3240004 C32.2961976,38.3934708 31.8195178,39.3263403 29.6871225,39.3263403 L29.6871225,41.1012257 L31.8195178,41.1012257 L31.8195178,53.2522217 L34.5791383,53.2522217" id="Fill-4"></path>
                <path d="M40.4492727,49.5889016 L40.4492727,40.9873917 C40.4492727,39.8496921 41.0011542,39.4174075 41.8792411,39.4174075 C42.7572569,39.4174075 43.3092095,39.8496921 43.3092095,40.9873917 L43.3092095,49.5889016 C43.3092095,50.72653 42.7572569,51.1583878 41.8792411,51.1583878 C41.0011542,51.1583878 40.4492727,50.72653 40.4492727,49.5889016 Z M46.06883,49.429534 L46.06883,41.1466881 C46.06883,38.5982297 44.5882767,37.1419372 41.8792411,37.1419372 C39.1697787,37.1419372 37.6896522,38.5982297 37.6896522,41.1466881 L37.6896522,49.429534 C37.6896522,51.9779925 39.1697787,53.4343561 41.8792411,53.4343561 C44.5882767,53.4343561 46.06883,51.9779925 46.06883,49.429534 L46.06883,49.429534 Z" id="Fill-5"></path>
                <path d="M53.2432174,49.5889016 C53.2432174,50.72653 52.6911225,51.1583878 51.8131779,51.1583878 C50.9352332,51.1583878 50.3831383,50.72653 50.3831383,49.5889016 L50.3831383,40.9873917 C50.3831383,39.8496921 50.9352332,39.4174075 51.8131779,39.4174075 C52.6911225,39.4174075 53.2432174,39.8496921 53.2432174,40.9873917 L53.2432174,49.5889016 Z M56.0029802,49.429534 L56.0029802,41.1466881 C56.0029802,38.5982297 54.5231383,37.1419372 51.8131779,37.1419372 C49.1039289,37.1419372 47.624087,38.5982297 47.624087,41.1466881 L47.624087,49.429534 C47.624087,51.9779925 49.1039289,53.4343561 51.8131779,53.4343561 C54.5231383,53.4343561 56.0029802,51.9779925 56.0029802,49.429534 L56.0029802,49.429534 Z" id="Fill-6"></path>
                <polyline id="Fill-7" points="67.2170514 37.3240004 60.2923874 53.2522217 61.9230593 53.2522217 68.8477233 37.3240004 67.2170514 37.3240004"></polyline>
                <path d="M68.094996,45.4702455 C68.094996,44.764617 68.4208458,44.4688621 68.9978419,44.4688621 C69.5499368,44.4688621 69.9013992,44.764617 69.9013992,45.4702455 L69.9013992,50.9314312 C69.9013992,51.6364905 69.5499368,51.9324589 68.9978419,51.9324589 C68.4208458,51.9324589 68.094996,51.6364905 68.094996,50.9314312 L68.094996,45.4702455 Z M66.3383953,45.5840795 L66.3383953,50.8175972 C66.3383953,52.4553838 67.2668538,53.3660557 68.9978419,53.3660557 C70.72883,53.3660557 71.6572885,52.4553838 71.6572885,50.8175972 L71.6572885,45.5840795 C71.6572885,43.9455103 70.72883,43.0353364 68.9978419,43.0353364 C67.2668538,43.0353364 66.3383953,43.9455103 66.3383953,45.5840795 L66.3383953,45.5840795 Z" id="Fill-8"></path>
                <path d="M59.3895415,45.1059767 L59.3895415,39.6449332 C59.3895415,38.9395182 59.7153913,38.6437632 60.2923874,38.6437632 C60.8444822,38.6437632 61.1959447,38.9395182 61.1959447,39.6449332 L61.1959447,45.1059767 C61.1959447,45.811036 60.8444822,46.1070044 60.2923874,46.1070044 C59.7153913,46.1070044 59.3895415,45.811036 59.3895415,45.1059767 Z M62.951834,44.9921427 L62.951834,39.7586961 C62.951834,38.1204115 62.0233755,37.2102376 60.2923874,37.2102376 C58.5613992,37.2102376 57.6336522,38.1204115 57.6336522,39.7586961 L57.6336522,44.9921427 C57.6336522,46.6306407 58.5613992,47.5406012 60.2923874,47.5406012 C62.0233755,47.5406012 62.951834,46.6306407 62.951834,44.9921427 L62.951834,44.9921427 Z" id="Fill-9"></path>
                <polyline id="Fill-10" points="33.2225217 59.7912731 35.2620711 66.6369648 36.944253 66.6369648 36.944253 57.1851862 35.4853281 57.1851862 35.4853281 62.8427356 33.8031462 57.1851862 31.7487273 57.1851862 31.7487273 66.6369648 33.2225217 66.6369648 33.2225217 59.7912731"></polyline>
                <path d="M40.4721107,58.8592573 L41.2611225,63.6395735 L39.6830988,63.6395735 L40.4721107,58.8592573 Z M39.191834,66.6369648 L39.4747115,64.9223403 L41.4844506,64.9223403 L41.7672569,66.6369648 L43.4196996,66.6369648 L41.7523874,57.1851862 L39.3556126,57.1851862 L37.6883004,66.6369648 L39.191834,66.6369648 L39.191834,66.6369648 Z" id="Fill-11"></path>
                <polyline id="Fill-12" points="46.4864585 66.6369648 46.4864585 58.5355419 48.1982372 58.5355419 48.1982372 57.1851862 43.1368221 57.1851862 43.1368221 58.5355419 44.8486719 58.5355419 44.8486719 66.6369648 46.4864585 66.6369648"></polyline>
                <path d="M48.8378419,57.1851862 L48.8378419,64.3816289 C48.8378419,65.894198 49.6716759,66.7586249 51.279581,66.7586249 C52.8874862,66.7586249 53.7213202,65.894198 53.7213202,64.3816289 L53.7213202,57.1851862 L52.1731779,57.1851862 L52.1731779,64.4762534 C52.1731779,65.1514312 51.8451937,65.3947514 51.3244032,65.3947514 C50.8029012,65.3947514 50.4756285,65.1514312 50.4756285,64.4762534 L50.4756285,57.1851862 L48.8378419,57.1851862" id="Fill-13"></path>
                <path d="M58.0975257,60.4394154 C58.0975257,61.1949885 57.7254308,61.4383087 57.114996,61.4383087 L56.4746798,61.4383087 L56.4746798,58.5355419 L57.2636917,58.5355419 C57.8442451,58.5355419 58.0975257,58.8322217 58.0975257,59.5073996 L58.0975257,60.4394154 Z M58.2611621,66.6369648 L59.92883,66.6369648 C59.7651937,66.2855024 59.750253,65.9482692 59.750253,65.4893759 L59.750253,64.0308779 C59.750253,63.0455024 59.4820316,62.3297712 58.6631383,62.0188621 C59.3930988,61.7086644 59.7353123,61.0740399 59.7353123,60.1014708 L59.7353123,59.358704 C59.7353123,57.9009174 59.0060632,57.1851862 57.3085138,57.1851862 L54.8376047,57.1851862 L54.8376047,66.6369648 L56.4746798,66.6369648 L56.4746798,62.7886644 L57.041004,62.7886644 C57.7851937,62.7886644 58.1124664,63.1123798 58.1124664,63.9903245 L58.1124664,65.4758581 C58.1124664,66.2456605 58.1722292,66.3936447 58.2611621,66.6369648 L58.2611621,66.6369648 Z" id="Fill-14"></path>
                <path d="M63.1738103,58.8592573 L63.9628221,63.6395735 L62.3847984,63.6395735 L63.1738103,58.8592573 Z M60.3898577,66.6369648 L61.8938893,66.6369648 L62.1763399,64.9223403 L64.1862213,64.9223403 L64.4686719,66.6369648 L66.1213992,66.6369648 L64.4537312,57.1851862 L62.0575257,57.1851862 L60.3898577,66.6369648 L60.3898577,66.6369648 Z" id="Fill-15"></path>
                <polyline id="Fill-16" points="66.8805296 57.1851862 66.8805296 66.6369648 71.2126245 66.6369648 71.2126245 65.2866091 68.5183162 65.2866091 68.5183162 57.1851862 66.8805296 57.1851862"></polyline>
                <path d="M15.7845771,26.2342731 C15.7845771,26.2342731 16.7772095,22.3586723 15.0191146,18.7660004 C13.0946087,14.8333206 8.74358893,9.47828499 8.74358893,9.47828499 C8.74358893,9.47828499 14.5171067,14.4149806 16.5252806,17.3435735 C18.8225929,20.6938502 18.9919209,23.627281 18.9919209,23.627281 C22.1767826,18.5327119 22.8379447,12.8888225 18.9892885,8.50443518 C13.2516996,1.9683008 0,1.79000831 0,1.79000831 C5.2824664,9.86631661 0.381770751,15.2642534 5.73139921,21.8619293 C9.3287668,26.2986802 15.7845771,26.2342731 15.7845771,26.2342731" id="Fill-17"></path>
            </g>
        </g>
    </g>
</svg>