<?xml version="1.0" encoding="UTF-8"?>
<svg width="29px" height="25px" viewBox="0 0 29 25" version="1.1" xmlns="http://www.w3.org/2000/svg" xmlns:xlink="http://www.w3.org/1999/xlink">
    <title>Group</title>
    <g id="Page-1" stroke="none" stroke-width="1" fill="none" fill-rule="evenodd">
        <g id="shutterstock_1726825699" transform="translate(-1398.000000, -1116.000000)" fill="#30312E">
            <g id="Group" transform="translate(1398.310000, 1116.680000)">
                <path d="M21.3754658,14.6288064 C20.2056353,14.6288064 19.1020718,14.247892 18.1840076,13.5276615 L17.586879,14.2887648 C18.6768988,15.1439478 19.9870025,15.5962081 21.3754658,15.5962081 C21.4562438,15.5962081 21.53678,15.5940315 21.6170744,15.5911293 L21.6170744,22.4630671 L6.04529314,22.4630671 L6.04529314,15.5949989 C6.07745924,15.5954826 6.10962535,15.5962081 6.1420333,15.5962081 C7.55492347,15.5962081 8.93443827,15.1045262 10.0266348,14.2118563 L9.41426951,13.4628456 C8.49451235,14.2147585 7.33242108,14.6288064 6.1420333,14.6288064 C3.28868203,14.6288064 0.967401686,12.3075261 0.967401686,9.45417483 C0.967401686,6.6010654 3.28868203,4.27978506 6.1420333,4.27978506 C6.37856302,4.27978506 6.61412533,4.29623089 6.84726913,4.32791329 C6.47989834,5.06579893 6.22934131,5.86197052 6.11156015,6.68813156 C6.05956231,7.05332569 6.03320061,7.42674274 6.03320061,7.79798314 L7.0006023,7.79798314 C7.0006023,7.47221062 7.02357809,7.14474515 7.06928782,6.82477704 C7.54524945,3.48554827 10.4522915,0.967401686 13.8311838,0.967401686 C17.1875839,0.967401686 20.0215871,3.36631602 20.5696202,6.67168573 C20.6308084,7.04123317 20.6620071,7.42021278 20.6620071,7.79798314 L21.6294087,7.79798314 C21.6294087,7.36724754 21.5938567,6.93506084 21.523962,6.51351555 C21.3962649,5.74370566 21.1524797,5.00170857 20.8066336,4.31122561 C20.9950351,4.29066833 21.1851295,4.27978506 21.3754658,4.27978506 C24.2288171,4.27978506 26.5498556,6.6010654 26.5498556,9.45417483 C26.5498556,12.3075261 24.2288171,14.6288064 21.3754658,14.6288064 Z M25.7183738,5.11126681 C24.5584592,3.95135219 23.0159372,3.31238337 21.3754658,3.31238337 C21.0064021,3.31238337 20.6385476,3.34551688 20.2777067,3.41057464 C19.8909879,2.84270985 19.4283281,2.3239407 18.8989175,1.87095486 C17.4889295,0.664363108 15.6893205,0 13.8311838,0 C11.942332,0 10.119989,0.683952992 8.69984336,1.92609676 C8.18857157,2.37303634 7.74211569,2.88116407 7.36797309,3.43500154 C6.96601769,3.35373979 6.55511382,3.31238337 6.1420333,3.31238337 C4.50132004,3.31238337 2.95903991,3.95135219 1.79888344,5.11126681 C0.638968814,6.27142328 0,7.81370342 0,9.45417483 C0,11.0948881 0.638968814,12.6371682 1.79888344,13.7973247 C2.70412956,14.702329 3.8420358,15.2902673 5.07789145,15.5047887 L5.07789145,23.4304688 L22.5844761,23.4304688 L22.5844761,15.4779433 C23.7642224,15.2435902 24.8486797,14.666777 25.7183738,13.7973247 C26.8785303,12.6371682 27.5172573,11.0948881 27.5172573,9.45417483 C27.5172573,7.81370342 26.8785303,6.27142328 25.7183738,5.11126681 L25.7183738,5.11126681 Z" id="Fill-3"></path>
            </g>
        </g>
    </g>
</svg>